<?xml version="1.0" encoding="UTF-8"?>
<!-- Generator: $$$/GeneralStr/196=Adobe Illustrator 27.6.0, SVG Export Plug-In . SVG Version: 6.00 Build 0)  -->
<svg xmlns="http://www.w3.org/2000/svg" xmlns:xlink="http://www.w3.org/1999/xlink" version="1.1" id="Livello_1" x="0px" y="0px" viewBox="0 0 126 165" width="126" height="165" style="enable-background:new 0 0 126 165;" xml:space="preserve">
<style type="text/css">
	.st0{fill:none;stroke:#2EA5DE;stroke-miterlimit:10;}
</style>
<path class="st0" d="M48.7,45.3c-6.3,0-11.4-5.1-11.4-11.4s5.1-11.4,11.4-11.4  s11.4,5.1,11.4,11.4S55,45.3,48.7,45.3z"></path>
<path class="st0" d="M48.7,40.3c-3.5,0-6.4-2.8-6.4-6.4s2.8-6.4,6.4-6.4s6.4,2.8,6.4,6.4  S52.2,40.3,48.7,40.3z"></path>
<path class="st0" d="M78.2,45.3c-6.3,0-11.4-5.1-11.4-11.4S72,22.6,78.2,22.6  s11.4,5.1,11.4,11.4S84.5,45.3,78.2,45.3z"></path>
<path class="st0" d="M78.2,40.3c-3.5,0-6.4-2.8-6.4-6.4s2.8-6.4,6.4-6.4c3.5,0,6.4,2.8,6.4,6.4  S81.7,40.3,78.2,40.3z"></path>
<path class="st0" d="M62.7,80.3c-6.3,0-11.4-5.1-11.4-11.4s5.1-11.4,11.4-11.4  s11.4,5.1,11.4,11.4S69,80.3,62.7,80.3z"></path>
<path class="st0" d="M62.7,75.3c-3.5,0-6.4-2.8-6.4-6.4c0-3.5,2.8-6.4,6.4-6.4  c3.5,0,6.4,2.8,6.4,6.4C69.1,72.4,66.2,75.3,62.7,75.3z"></path>
<path class="st0" d="M84.8,66.3c-4.5,0-8.2-3.7-8.2-8.2s3.7-8.2,8.2-8.2s8.2,3.7,8.2,8.2  S89.3,66.3,84.8,66.3z"></path>
<path class="st0" d="M84.8,62.7c-2.6,0-4.7-2.1-4.7-4.7s2.1-4.7,4.7-4.7c2.6,0,4.7,2.1,4.7,4.7  S87.4,62.7,84.8,62.7z"></path>
<path class="st0" d="M41,66.3c-4.5,0-8.2-3.7-8.2-8.2s3.7-8.2,8.2-8.2s8.2,3.7,8.2,8.2  S45.6,66.3,41,66.3z"></path>
<path class="st0" d="M41,62.7c-2.6,0-4.7-2.1-4.7-4.7s2.1-4.7,4.7-4.7s4.7,2.1,4.7,4.7  S43.6,62.7,41,62.7z"></path>
<path class="st0" d="M62.7,85.3c-20.6,0-37.4-16.8-37.4-37.4s16.8-37.4,37.4-37.4  s37.4,16.8,37.4,37.4S83.3,85.3,62.7,85.3z"></path>
<path class="st0" d="M62.7,93.7c-25.3,0-45.8-20.6-45.8-45.8S37.4,2,62.7,2s45.8,20.6,45.8,45.8  S88,93.7,62.7,93.7z"></path>
<path class="st0" d="M88,157.2H38c-14.5,0-26.4-11.8-26.4-26.4s11.8-26.4,26.4-26.4h50  c14.5,0,26.4,11.8,26.4,26.4S102.6,157.2,88,157.2L88,157.2z"></path>
<path class="st0" d="M88.8,163H37.2c-17.7,0-32.1-14.4-32.1-32.1s14.4-32.1,32.1-32.1h51.6  c17.7,0,32.1,14.4,32.1,32.1S106.5,163,88.8,163z"></path>
<path class="st0" d="M41,150.5c-10.8,0-19.7-8.8-19.7-19.7s8.8-19.7,19.7-19.7  s19.7,8.8,19.7,19.7S51.9,150.5,41,150.5z"></path>
<path class="st0" d="M41,139.6c-4.8,0-8.8-3.9-8.8-8.8c0-4.8,3.9-8.8,8.8-8.8s8.8,3.9,8.8,8.8  C49.8,135.7,45.9,139.6,41,139.6z"></path>
<path class="st0" d="M84.8,150.5c-10.8,0-19.7-8.8-19.7-19.7s8.8-19.7,19.7-19.7  s19.7,8.8,19.7,19.7S95.6,150.5,84.8,150.5z"></path>
<path class="st0" d="M84.8,139.6c-4.8,0-8.8-3.9-8.8-8.8c0-4.8,3.9-8.8,8.8-8.8s8.8,3.9,8.8,8.8  C93.5,135.6,89.6,139.6,84.8,139.6z"></path>
</svg>
