<?xml version="1.0" encoding="UTF-8"?>
<!-- Generator: $$$/GeneralStr/196=Adobe Illustrator 27.6.0, SVG Export Plug-In . SVG Version: 6.00 Build 0)  -->
<svg xmlns="http://www.w3.org/2000/svg" xmlns:xlink="http://www.w3.org/1999/xlink" version="1.1" id="Livello_1" x="0px" y="0px" viewBox="0 0 126 165" width="126" height="165" style="enable-background:new 0 0 126 165;" xml:space="preserve">
<style type="text/css">
	.st0{fill:none;stroke:#2EA5DE;stroke-miterlimit:10;}
</style>
<path class="st0" d="M63.2,76c-4.3,0-7.8-3.5-7.8-7.8s3.5-7.8,7.8-7.8s7.8,3.5,7.8,7.8  S67.5,76,63.2,76z"></path>
<path class="st0" d="M63.2,72c-2.1,0-3.8-1.7-3.8-3.8s1.7-3.8,3.8-3.8c2.1,0,3.8,1.7,3.8,3.8  S65.3,72,63.2,72z"></path>
<path class="st0" d="M41.8,119.4c-4.3,0-7.8-3.5-7.8-7.8s3.5-7.8,7.8-7.8s7.8,3.5,7.8,7.8  S46.1,119.4,41.8,119.4z"></path>
<path class="st0" d="M41.8,115.4c-2.1,0-3.8-1.7-3.8-3.8s1.7-3.8,3.8-3.8s3.8,1.7,3.8,3.8  S43.9,115.4,41.8,115.4z"></path>
<path class="st0" d="M84.2,119.4c-4.3,0-7.8-3.5-7.8-7.8s3.5-7.8,7.8-7.8s7.8,3.5,7.8,7.8  S88.5,119.4,84.2,119.4z"></path>
<path class="st0" d="M84.2,115.4c-2.1,0-3.8-1.7-3.8-3.8s1.7-3.8,3.8-3.8s3.8,1.7,3.8,3.8  S86.3,115.4,84.2,115.4z"></path>
<path class="st0" d="M63,122.3c-5.9,0-10.7-4.8-10.7-10.7S57.1,101,63,101s10.7,4.8,10.7,10.7  S68.9,122.3,63,122.3z"></path>
<path class="st0" d="M63,116.7c-2.8,0-5.1-2.3-5.1-5.1s2.3-5.1,5.1-5.1c2.8,0,5.1,2.3,5.1,5.1  S65.8,116.7,63,116.7z"></path>
<path class="st0" d="M63.2,58.3c-4.3,0-7.8-3.5-7.8-7.8s3.5-7.8,7.8-7.8s7.8,3.5,7.8,7.8  S67.5,58.3,63.2,58.3z"></path>
<path class="st0" d="M63.2,54.3c-2.1,0-3.8-1.7-3.8-3.8s1.7-3.8,3.8-3.8c2.1,0,3.8,1.7,3.8,3.8  S65.3,54.3,63.2,54.3z"></path>
<path class="st0" d="M45.1,58.3c-4.3,0-7.8-3.5-7.8-7.8s3.5-7.8,7.8-7.8s7.8,3.5,7.8,7.8  S49.4,58.3,45.1,58.3z"></path>
<path class="st0" d="M45.1,54.3c-2.1,0-3.8-1.7-3.8-3.8s1.7-3.8,3.8-3.8s3.8,1.7,3.8,3.8  S47.2,54.3,45.1,54.3z"></path>
<path class="st0" d="M80.9,58.3c-4.3,0-7.8-3.5-7.8-7.8s3.5-7.8,7.8-7.8s7.8,3.5,7.8,7.8  S85.2,58.3,80.9,58.3z"></path>
<path class="st0" d="M80.9,54.3c-2.1,0-3.8-1.7-3.8-3.8s1.7-3.8,3.8-3.8s3.8,1.7,3.8,3.8  S83,54.3,80.9,54.3z"></path>
<path class="st0" d="M88.2,100.5c-9.8,0-17.7-7.9-17.7-17.7s7.9-17.7,17.7-17.7  s17.7,7.9,17.7,17.7S98,100.5,88.2,100.5z"></path>
<path class="st0" d="M88.2,91c-4.6,0-8.2-3.7-8.2-8.2s3.7-8.2,8.2-8.2s8.2,3.7,8.2,8.2  S92.8,91,88.2,91z"></path>
<path class="st0" d="M37.8,100.5C28,100.5,20,92.6,20,82.8s8-17.7,17.7-17.7S55.5,73,55.5,82.8  S47.6,100.5,37.8,100.5z"></path>
<path class="st0" d="M37.8,91c-4.5,0-8.2-3.7-8.2-8.2s3.7-8.2,8.2-8.2s8.2,3.7,8.2,8.2  S42.3,91,37.8,91z"></path>
<circle class="st0" cx="63" cy="82.5" r="62"></circle>
<path class="st0" d="M84.7,37.5H41.3c-1.5,0-2.9,0.4-4.1,1.1c-15,8.9-25.1,25.3-25,44.1  c0.1,28.2,22.7,50.7,50.9,50.7c28.1,0,50.9-22.8,50.9-50.9c0-18.7-10.1-35-25.1-43.9C87.6,37.9,86.2,37.5,84.7,37.5z"></path>
</svg>
