<?xml version="1.0" encoding="UTF-8"?>
<!-- Generator: $$$/GeneralStr/196=Adobe Illustrator 27.6.0, SVG Export Plug-In . SVG Version: 6.00 Build 0)  -->
<svg xmlns="http://www.w3.org/2000/svg" xmlns:xlink="http://www.w3.org/1999/xlink" version="1.1" id="Livello_1" x="0px" y="0px" viewBox="0 0 126 165" width="126" height="165" style="enable-background:new 0 0 126 165;" xml:space="preserve">
<style type="text/css">
	.st0{fill:none;stroke:#2EA5DE;stroke-miterlimit:10;}
</style>
<path class="st0" d="M63,88.8c-1.1,0-2.2,0-3.3-0.1c-20.8-1.5-37.9-18.3-39.9-39  c-1.3-13.3,3.4-26.2,12.9-35.4c1.3-1.3,3-2,4.9-2h50.9c1.8,0,3.6,0.7,4.9,2c8.5,8.2,13.2,19.3,13.2,31.1S101.4,69,92.6,77.2  C84.4,84.7,74.1,88.8,63,88.8z"></path>
<path class="st0" d="M63,97.4c-0.7,0-1.4,0-2,0c-27-1-48.9-23-49.8-50.1  c-0.6-17.6,7.7-34.1,22-44.2c1.7-1.2,3.6-1.8,5.7-1.8h48.1c2.1,0,4.1,0.6,5.7,1.8c13.8,9.7,22.1,25.6,22.1,42.5  c0,14.2-5.7,27.5-15.9,37.4C89.2,92.3,76.5,97.4,63,97.4L63,97.4z"></path>
<path class="st0" d="M36.4,57c-7,0-12.7-5.7-12.7-12.7s5.7-12.7,12.7-12.7s12.7,5.7,12.7,12.7  S43.4,57,36.4,57z"></path>
<path class="st0" d="M36.4,50.3c-3.3,0-6-2.7-6-6s2.7-6,6-6s6,2.7,6,6S39.7,50.3,36.4,50.3z"></path>
<path class="st0" d="M63,57c-7,0-12.7-5.7-12.7-12.7S56,31.6,63,31.6s12.7,5.7,12.7,12.7  S70,57,63,57z"></path>
<path class="st0" d="M63,50.3c-3.3,0-6-2.7-6-6s2.7-6,6-6c3.3,0,6,2.7,6,6S66.3,50.3,63,50.3z"></path>
<path class="st0" d="M49.9,34c-4.8,0-8.8-3.9-8.8-8.8s3.9-8.8,8.8-8.8s8.8,3.9,8.8,8.8  S54.7,34,49.9,34z"></path>
<path class="st0" d="M49.9,29.5c-2.3,0-4.2-1.9-4.2-4.2s1.9-4.2,4.2-4.2s4.2,1.9,4.2,4.2  S52.2,29.5,49.9,29.5z"></path>
<path class="st0" d="M76.2,34c-4.8,0-8.8-3.9-8.8-8.8s3.9-8.8,8.8-8.8s8.8,3.9,8.8,8.8  S81,34,76.2,34z"></path>
<path class="st0" d="M76.2,29.5c-2.3,0-4.2-1.9-4.2-4.2s1.9-4.2,4.2-4.2s4.2,1.9,4.2,4.2  S78.5,29.5,76.2,29.5z"></path>
<path class="st0" d="M89.2,57c-7,0-12.7-5.7-12.7-12.7s5.7-12.7,12.7-12.7S102,37.3,102,44.3  S96.3,57,89.2,57z"></path>
<path class="st0" d="M89.2,50.3c-3.3,0-6-2.7-6-6s2.7-6,6-6s6,2.7,6,6S92.5,50.3,89.2,50.3z"></path>
<path class="st0" d="M76.2,80.5c-7,0-12.7-5.7-12.7-12.7s5.7-12.7,12.7-12.7s12.7,5.7,12.7,12.7  S83.2,80.5,76.2,80.5z"></path>
<path class="st0" d="M76.2,73.8c-3.3,0-6-2.7-6-6s2.7-6,6-6s6,2.7,6,6S79.5,73.8,76.2,73.8z"></path>
<path class="st0" d="M49.6,80.5c-7,0-12.7-5.7-12.7-12.7s5.7-12.7,12.7-12.7s12.7,5.7,12.7,12.7  S56.6,80.5,49.6,80.5z"></path>
<path class="st0" d="M49.6,73.8c-3.3,0-6-2.7-6-6s2.7-6,6-6s6,2.7,6,6S52.9,73.8,49.6,73.8z"></path>
<path class="st0" d="M87.2,158.2H38.8c-14.1,0-25.5-11.4-25.5-25.5s11.4-25.5,25.5-25.5h48.4  c14.1,0,25.5,11.4,25.5,25.5S101.3,158.2,87.2,158.2z"></path>
<path class="st0" d="M88,163.8H38c-17.1,0-31.1-13.9-31.1-31.1s13.9-31.1,31.1-31.1h50  c17.1,0,31.1,13.9,31.1,31.1S105.1,163.8,88,163.8L88,163.8z"></path>
<path class="st0" d="M41.7,151.7c-10.5,0-19-8.5-19-19s8.5-19,19-19s19,8.5,19,19  S52.2,151.7,41.7,151.7z"></path>
<path class="st0" d="M41.7,141.1c-4.7,0-8.5-3.8-8.5-8.5s3.8-8.5,8.5-8.5s8.5,3.8,8.5,8.5  S46.4,141.1,41.7,141.1z"></path>
<path class="st0" d="M84.1,151.6c-10.5,0-19-8.5-19-19s8.5-19,19-19s19,8.5,19,19  S94.6,151.6,84.1,151.6z"></path>
<path class="st0" d="M84.1,141.1c-4.7,0-8.5-3.8-8.5-8.5s3.8-8.5,8.5-8.5s8.5,3.8,8.5,8.5  S88.7,141.1,84.1,141.1z"></path>
</svg>
